<?xml version="1.0" encoding="UTF-8"?>
<svg xmlns="http://www.w3.org/2000/svg" xmlns:xlink="http://www.w3.org/1999/xlink" viewBox="0 0 30 30" width="30px" height="30px">
<g id="surface27635546">
<path style=" stroke:none;fill-rule:nonzero;fill:rgb(100%,0%,0%);fill-opacity:1;" d="M 22.5 2.5 C 20.429688 2.5 18.75 4.179688 18.75 6.25 C 18.75 6.484375 18.773438 6.71875 18.820312 6.949219 L 9.925781 12.136719 C 9.246094 11.566406 8.386719 11.25 7.5 11.25 C 5.429688 11.25 3.75 12.929688 3.75 15 C 3.75 17.070312 5.429688 18.75 7.5 18.75 C 8.386719 18.75 9.242188 18.433594 9.917969 17.859375 L 18.820312 23.050781 C 18.773438 23.28125 18.75 23.515625 18.75 23.75 C 18.75 25.820312 20.429688 27.5 22.5 27.5 C 24.570312 27.5 26.25 25.820312 26.25 23.75 C 26.25 21.679688 24.570312 20 22.5 20 C 21.613281 20 20.753906 20.316406 20.078125 20.890625 L 11.179688 15.699219 C 11.226562 15.46875 11.25 15.234375 11.25 15 C 11.25 14.765625 11.226562 14.53125 11.179688 14.300781 L 20.074219 9.109375 C 20.753906 9.683594 21.613281 10 22.5 10 C 24.570312 10 26.25 8.320312 26.25 6.25 C 26.25 4.179688 24.570312 2.5 22.5 2.5 Z M 22.5 2.5 "/>
</g>
</svg>
